<svg width="30" height="30" viewBox="0 0 30 30" fill="none" xmlns="http://www.w3.org/2000/svg">
<path d="M15 2.8125C12.5895 2.8125 10.2332 3.52728 8.22899 4.86646C6.22477 6.20564 4.66267 8.10907 3.74022 10.336C2.81778 12.563 2.57643 15.0135 3.04668 17.3777C3.51694 19.7418 4.67769 21.9134 6.38214 23.6179C8.08659 25.3223 10.2582 26.4831 12.6223 26.9533C14.9865 27.4236 17.437 27.1822 19.664 26.2598C21.8909 25.3373 23.7944 23.7752 25.1335 21.771C26.4727 19.7668 27.1875 17.4105 27.1875 15C27.1841 11.7687 25.899 8.67076 23.6141 6.3859C21.3292 4.10104 18.2313 2.81591 15 2.8125ZM15 25.3125C12.9604 25.3125 10.9666 24.7077 9.27069 23.5745C7.5748 22.4414 6.25303 20.8308 5.4725 18.9464C4.69197 17.0621 4.48775 14.9886 4.88566 12.9881C5.28357 10.9877 6.26574 9.15019 7.70797 7.70796C9.1502 6.26573 10.9877 5.28356 12.9881 4.88565C14.9886 4.48774 17.0621 4.69196 18.9464 5.47249C20.8308 6.25302 22.4414 7.5748 23.5745 9.27068C24.7077 10.9666 25.3125 12.9604 25.3125 15C25.3094 17.7341 24.2219 20.3553 22.2886 22.2886C20.3553 24.2219 17.7341 25.3094 15 25.3125ZM16.875 20.625C16.875 20.8736 16.7762 21.1121 16.6004 21.2879C16.4246 21.4637 16.1861 21.5625 15.9375 21.5625C15.4402 21.5625 14.9633 21.365 14.6117 21.0133C14.26 20.6617 14.0625 20.1848 14.0625 19.6875V15C13.8139 15 13.5754 14.9012 13.3996 14.7254C13.2238 14.5496 13.125 14.3111 13.125 14.0625C13.125 13.8139 13.2238 13.5754 13.3996 13.3996C13.5754 13.2238 13.8139 13.125 14.0625 13.125C14.5598 13.125 15.0367 13.3225 15.3883 13.6742C15.74 14.0258 15.9375 14.5027 15.9375 15V19.6875C16.1861 19.6875 16.4246 19.7863 16.6004 19.9621C16.7762 20.1379 16.875 20.3764 16.875 20.625ZM13.125 9.84375C13.125 9.56562 13.2075 9.29374 13.362 9.06248C13.5165 8.83122 13.7361 8.65098 13.9931 8.54454C14.2501 8.43811 14.5328 8.41026 14.8056 8.46452C15.0784 8.51878 15.329 8.65271 15.5256 8.84938C15.7223 9.04605 15.8562 9.29662 15.9105 9.5694C15.9647 9.84219 15.9369 10.1249 15.8305 10.3819C15.724 10.6389 15.5438 10.8585 15.3125 11.013C15.0813 11.1675 14.8094 11.25 14.5313 11.25C14.1583 11.25 13.8006 11.1018 13.5369 10.8381C13.2732 10.5744 13.125 10.2167 13.125 9.84375Z" fill="black"/>
</svg>
