<svg width="46" height="50" viewBox="0 0 46 50" fill="none" xmlns="http://www.w3.org/2000/svg">
<path d="M41.75 4.5H36.125V2.625C36.125 2.12772 35.9275 1.65081 35.5758 1.29917C35.2242 0.947544 34.7473 0.75 34.25 0.75C33.7527 0.75 33.2758 0.947544 32.9242 1.29917C32.5725 1.65081 32.375 2.12772 32.375 2.625V4.5H13.625V2.625C13.625 2.12772 13.4275 1.65081 13.0758 1.29917C12.7242 0.947544 12.2473 0.75 11.75 0.75C11.2527 0.75 10.7758 0.947544 10.4242 1.29917C10.0725 1.65081 9.875 2.12772 9.875 2.625V4.5H4.25C3.25544 4.5 2.30161 4.89509 1.59835 5.59835C0.895088 6.30161 0.5 7.25544 0.5 8.25V45.75C0.5 46.7446 0.895088 47.6984 1.59835 48.4016C2.30161 49.1049 3.25544 49.5 4.25 49.5H41.75C42.7446 49.5 43.6984 49.1049 44.4016 48.4016C45.1049 47.6984 45.5 46.7446 45.5 45.75V8.25C45.5 7.25544 45.1049 6.30161 44.4016 5.59835C43.6984 4.89509 42.7446 4.5 41.75 4.5ZM9.875 8.25V10.125C9.875 10.6223 10.0725 11.0992 10.4242 11.4508C10.7758 11.8025 11.2527 12 11.75 12C12.2473 12 12.7242 11.8025 13.0758 11.4508C13.4275 11.0992 13.625 10.6223 13.625 10.125V8.25H32.375V10.125C32.375 10.6223 32.5725 11.0992 32.9242 11.4508C33.2758 11.8025 33.7527 12 34.25 12C34.7473 12 35.2242 11.8025 35.5758 11.4508C35.9275 11.0992 36.125 10.6223 36.125 10.125V8.25H41.75V15.75H4.25V8.25H9.875ZM41.75 45.75H4.25V19.5H41.75V45.75ZM19.25 25.125V40.125C19.25 40.6223 19.0525 41.0992 18.7008 41.4508C18.3492 41.8025 17.8723 42 17.375 42C16.8777 42 16.4008 41.8025 16.0492 41.4508C15.6975 41.0992 15.5 40.6223 15.5 40.125V28.1578L14.4641 28.6781C14.019 28.9007 13.5038 28.9373 13.0317 28.7799C12.5596 28.6226 12.1694 28.2841 11.9469 27.8391C11.7243 27.394 11.6877 26.8788 11.8451 26.4067C12.0024 25.9346 12.3409 25.5444 12.7859 25.3219L16.5359 23.4469C16.8219 23.3038 17.1397 23.2362 17.4592 23.2505C17.7786 23.2649 18.0891 23.3607 18.3611 23.5289C18.633 23.697 18.8575 23.932 19.0131 24.2113C19.1687 24.4907 19.2502 24.8052 19.25 25.125ZM33.1156 32.2617L28.625 38.25H32.375C32.8723 38.25 33.3492 38.4475 33.7008 38.7992C34.0525 39.1508 34.25 39.6277 34.25 40.125C34.25 40.6223 34.0525 41.0992 33.7008 41.4508C33.3492 41.8025 32.8723 42 32.375 42H24.875C24.5268 42 24.1855 41.903 23.8893 41.72C23.593 41.5369 23.3537 41.275 23.198 40.9635C23.0422 40.6521 22.9763 40.3034 23.0076 39.9566C23.0388 39.6098 23.1661 39.2786 23.375 39L30.1203 30.007C30.2737 29.8028 30.3838 29.5693 30.4438 29.321C30.5037 29.0727 30.5123 28.8147 30.469 28.563C30.4257 28.3112 30.3314 28.0709 30.1918 27.8569C30.0523 27.6429 29.8706 27.4597 29.6577 27.3185C29.4448 27.1773 29.2053 27.081 28.9539 27.0357C28.7025 26.9903 28.4445 26.9969 28.1957 27.0548C27.9469 27.1128 27.7126 27.221 27.5071 27.3728C27.3016 27.5246 27.1293 27.7167 27.0008 27.9375C26.8813 28.1575 26.719 28.3514 26.5233 28.5077C26.3277 28.664 26.1028 28.7795 25.8618 28.8474C25.6208 28.9154 25.3686 28.9343 25.1202 28.9032C24.8717 28.8721 24.632 28.7916 24.4152 28.6664C24.1984 28.5411 24.0089 28.3737 23.8578 28.1741C23.7067 27.9744 23.5972 27.7465 23.5356 27.5038C23.474 27.2611 23.4617 27.0085 23.4993 26.761C23.537 26.5134 23.6238 26.2759 23.7547 26.0625C24.3741 24.9907 25.3297 24.1531 26.4735 23.6796C27.6172 23.2061 28.8853 23.1231 30.081 23.4436C31.2767 23.764 32.3333 24.4699 33.0871 25.4519C33.8408 26.4339 34.2496 27.6371 34.25 28.875C34.254 30.0978 33.8553 31.288 33.1156 32.2617Z" fill="black"/>
</svg>
