<svg width="40" height="40" viewBox="0 0 40 40" fill="none" xmlns="http://www.w3.org/2000/svg">
<path d="M20.0006 12.5C18.5172 12.5 17.0672 12.9399 15.8338 13.764C14.6004 14.5881 13.6391 15.7594 13.0715 17.1299C12.5038 18.5003 12.3553 20.0083 12.6447 21.4632C12.9341 22.918 13.6484 24.2544 14.6973 25.3033C15.7462 26.3522 17.0825 27.0665 18.5374 27.3559C19.9922 27.6453 21.5002 27.4968 22.8707 26.9291C24.2411 26.3615 25.4125 25.4002 26.2366 24.1668C27.0607 22.9334 27.5006 21.4834 27.5006 20C27.4985 18.0115 26.7077 16.1051 25.3016 14.699C23.8955 13.2929 21.989 12.5021 20.0006 12.5ZM20.0006 25C19.0117 25 18.045 24.7068 17.2227 24.1574C16.4005 23.608 15.7596 22.8271 15.3812 21.9134C15.0027 20.9998 14.9037 19.9945 15.0966 19.0246C15.2896 18.0547 15.7658 17.1637 16.465 16.4645C17.1643 15.7652 18.0552 15.289 19.0251 15.0961C19.995 14.9032 21.0003 15.0022 21.914 15.3806C22.8276 15.7591 23.6085 16.3999 24.1579 17.2222C24.7073 18.0444 25.0006 19.0111 25.0006 20C25.0006 21.3261 24.4738 22.5979 23.5361 23.5355C22.5984 24.4732 21.3266 25 20.0006 25ZM33.7506 20.3375C33.7568 20.1125 33.7568 19.8875 33.7506 19.6625L36.0818 16.75C36.204 16.5971 36.2887 16.4176 36.3288 16.226C36.369 16.0344 36.3636 15.836 36.3131 15.6469C35.9309 14.2103 35.3592 12.831 34.6131 11.5453C34.5154 11.3771 34.3797 11.2339 34.217 11.1273C34.0542 11.0207 33.8688 10.9536 33.6756 10.9313L29.9693 10.5188C29.8151 10.3563 29.6589 10.2 29.5006 10.05L29.0631 6.33439C29.0406 6.14097 28.9732 5.95548 28.8663 5.79271C28.7594 5.62995 28.616 5.4944 28.4474 5.39689C27.1612 4.65211 25.7821 4.081 24.3459 3.69845C24.1566 3.64813 23.9582 3.64298 23.7666 3.68342C23.575 3.72386 23.3955 3.80876 23.2427 3.93126L20.3381 6.25001C20.1131 6.25001 19.8881 6.25001 19.6631 6.25001L16.7506 3.92345C16.5976 3.80121 16.4181 3.7166 16.2265 3.67643C16.0349 3.63627 15.8366 3.64167 15.6474 3.6922C14.2111 4.07505 12.8319 4.6467 11.5459 5.3922C11.3776 5.48989 11.2345 5.62552 11.1279 5.78827C11.0213 5.95103 10.9541 6.13642 10.9318 6.3297L10.5193 10.0422C10.3568 10.1974 10.2006 10.3537 10.0506 10.5109L6.33493 10.9375C6.14152 10.96 5.95603 11.0274 5.79326 11.1343C5.6305 11.2412 5.49495 11.3846 5.39743 11.5531C4.65266 12.8393 4.08155 14.2185 3.699 15.6547C3.64868 15.844 3.64353 16.0424 3.68397 16.234C3.72441 16.4256 3.80931 16.605 3.93181 16.7578L6.25056 19.6625C6.25056 19.8875 6.25056 20.1125 6.25056 20.3375L3.924 23.25C3.80176 23.4029 3.71715 23.5824 3.67698 23.774C3.63682 23.9656 3.64222 24.164 3.69275 24.3531C4.07492 25.7897 4.64661 27.169 5.39275 28.4547C5.49044 28.623 5.62607 28.7661 5.78882 28.8727C5.95158 28.9793 6.13697 29.0464 6.33025 29.0688L10.0365 29.4813C10.1917 29.6438 10.348 29.8 10.5052 29.95L10.9381 33.6656C10.9606 33.8591 11.0279 34.0445 11.1348 34.2073C11.2417 34.3701 11.3851 34.5056 11.5537 34.6031C12.8399 35.3479 14.2191 35.919 15.6552 36.3016C15.8445 36.3519 16.0429 36.357 16.2345 36.3166C16.4262 36.2762 16.6056 36.1913 16.7584 36.0688L19.6631 33.75C19.8881 33.7563 20.1131 33.7563 20.3381 33.75L23.2506 36.0813C23.4035 36.2035 23.583 36.2881 23.7746 36.3283C23.9662 36.3684 24.1645 36.363 24.3537 36.3125C25.7902 35.9303 27.1695 35.3587 28.4552 34.6125C28.6235 34.5148 28.7666 34.3792 28.8732 34.2164C28.9798 34.0537 29.047 33.8683 29.0693 33.675L29.4818 29.9688C29.6443 29.8146 29.8006 29.6583 29.9506 29.5L33.6662 29.0625C33.8596 29.04 34.0451 28.9726 34.2079 28.8657C34.3706 28.7589 34.5062 28.6154 34.6037 28.4469C35.3485 27.1607 35.9196 25.7815 36.3021 24.3453C36.3524 24.1561 36.3576 23.9576 36.3172 23.766C36.2767 23.5744 36.1918 23.395 36.0693 23.2422L33.7506 20.3375ZM31.2349 19.3219C31.2615 19.7736 31.2615 20.2264 31.2349 20.6781C31.2163 20.9874 31.3132 21.2925 31.5068 21.5344L33.724 24.3047C33.4696 25.1132 33.1438 25.8976 32.7506 26.6485L29.2193 27.0485C28.9118 27.0826 28.6279 27.2296 28.4224 27.461C28.1217 27.7992 27.8013 28.1196 27.4631 28.4203C27.2317 28.6257 27.0847 28.9097 27.0506 29.2172L26.6584 32.7453C25.9076 33.1388 25.1232 33.4645 24.3146 33.7188L21.5427 31.5016C21.3209 31.3244 21.0454 31.2279 20.7615 31.2281H20.6865C20.2348 31.2547 19.7819 31.2547 19.3302 31.2281C19.021 31.2095 18.7159 31.3064 18.474 31.5L15.6959 33.7188C14.8873 33.4643 14.103 33.1386 13.3521 32.7453L12.9521 29.2188C12.918 28.9112 12.771 28.6273 12.5396 28.4219C12.2014 28.1211 11.881 27.8008 11.5802 27.4625C11.3748 27.2311 11.0909 27.0841 10.7834 27.05L7.25525 26.6563C6.8618 25.9055 6.53603 25.1211 6.28181 24.3125L8.499 21.5406C8.6926 21.2988 8.78949 20.9936 8.77087 20.6844C8.74431 20.2327 8.74431 19.7798 8.77087 19.3281C8.78949 19.0189 8.6926 18.7138 8.499 18.4719L6.28181 15.6953C6.53622 14.8868 6.86198 14.1024 7.25525 13.3516L10.7818 12.9516C11.0893 12.9174 11.3733 12.7705 11.5787 12.5391C11.8795 12.2008 12.1998 11.8805 12.5381 11.5797C12.7704 11.3741 12.9179 11.0896 12.9521 10.7813L13.3443 7.2547C14.0951 6.86125 14.8794 6.53548 15.6881 6.28126L18.4599 8.49845C18.7018 8.69205 19.0069 8.78894 19.3162 8.77032C19.7679 8.74376 20.2207 8.74376 20.6724 8.77032C20.9817 8.78894 21.2868 8.69205 21.5287 8.49845L24.3053 6.28126C25.1138 6.53567 25.8981 6.86144 26.649 7.2547L27.049 10.7813C27.0831 11.0888 27.2301 11.3727 27.4615 11.5781C27.7998 11.8789 28.1201 12.1992 28.4209 12.5375C28.6263 12.7689 28.9102 12.9159 29.2178 12.95L32.7459 13.3422C33.1393 14.093 33.4651 14.8773 33.7193 15.6859L31.5021 18.4578C31.3067 18.7017 31.2097 19.01 31.2302 19.3219H31.2349Z" fill="black"/>
</svg>
