<svg width="58" height="42" viewBox="0 0 58 42" fill="none" xmlns="http://www.w3.org/2000/svg">
<path d="M25.3461 15.0305C25.2682 14.7969 25.2371 14.5502 25.2545 14.3046C25.272 14.0589 25.3377 13.8191 25.4478 13.5989C25.5579 13.3786 25.7103 13.1822 25.8964 13.0209C26.0824 12.8596 26.2984 12.7364 26.532 12.6586L29.3445 11.7211C29.6264 11.6271 29.9266 11.6015 30.2203 11.6463C30.514 11.6911 30.7928 11.8051 31.0339 11.9788C31.2749 12.1525 31.4712 12.3811 31.6066 12.6455C31.7419 12.91 31.8125 13.2029 31.8125 13.5V22.875C31.8125 23.3723 31.615 23.8492 31.2633 24.2008C30.9117 24.5525 30.4348 24.75 29.9375 24.75C29.4402 24.75 28.9633 24.5525 28.6117 24.2008C28.26 23.8492 28.0625 23.3723 28.0625 22.875V16.1016L27.718 16.2164C27.4844 16.2943 27.2377 16.3254 26.9921 16.308C26.7464 16.2905 26.5066 16.2248 26.2864 16.1147C26.0661 16.0046 25.8697 15.8522 25.7084 15.6661C25.5471 15.4801 25.424 15.2641 25.3461 15.0305ZM57.125 39.75C57.125 40.2473 56.9275 40.7242 56.5758 41.0758C56.2242 41.4275 55.7473 41.625 55.25 41.625H2.75C2.25272 41.625 1.77581 41.4275 1.42417 41.0758C1.07254 40.7242 0.875 40.2473 0.875 39.75C0.875 39.2527 1.07254 38.7758 1.42417 38.4242C1.77581 38.0725 2.25272 37.875 2.75 37.875H4.625V15.375C4.625 14.3804 5.02009 13.4266 5.72335 12.7234C6.42661 12.0201 7.38044 11.625 8.375 11.625H17.75V4.125C17.75 3.13044 18.1451 2.17661 18.8484 1.47335C19.5516 0.770088 20.5054 0.375 21.5 0.375H36.5C37.4946 0.375 38.4484 0.770088 39.1516 1.47335C39.8549 2.17661 40.25 3.13044 40.25 4.125V21H49.625C50.6196 21 51.5734 21.3951 52.2766 22.0984C52.9799 22.8016 53.375 23.7554 53.375 24.75V37.875H55.25C55.7473 37.875 56.2242 38.0725 56.5758 38.4242C56.9275 38.7758 57.125 39.2527 57.125 39.75ZM40.25 24.75V37.875H49.625V24.75H40.25ZM21.5 37.875H36.5V4.125H21.5V37.875ZM8.375 37.875H17.75V15.375H8.375V37.875Z" fill="black"/>
</svg>
