<svg width="30" height="30" viewBox="0 0 30 30" fill="none" xmlns="http://www.w3.org/2000/svg">
<path d="M14.0625 25.3125C14.0625 25.5611 13.9637 25.7996 13.7879 25.9754C13.6121 26.1512 13.3736 26.25 13.125 26.25H5.625C5.37636 26.25 5.1379 26.1512 4.96209 25.9754C4.78627 25.7996 4.6875 25.5611 4.6875 25.3125V4.6875C4.6875 4.43886 4.78627 4.2004 4.96209 4.02459C5.1379 3.84877 5.37636 3.75 5.625 3.75H13.125C13.3736 3.75 13.6121 3.84877 13.7879 4.02459C13.9637 4.2004 14.0625 4.43886 14.0625 4.6875C14.0625 4.93614 13.9637 5.1746 13.7879 5.35041C13.6121 5.52623 13.3736 5.625 13.125 5.625H6.5625V24.375H13.125C13.3736 24.375 13.6121 24.4738 13.7879 24.6496C13.9637 24.8254 14.0625 25.0639 14.0625 25.3125ZM26.9133 14.3367L22.2258 9.64922C22.0499 9.47331 21.8113 9.37448 21.5625 9.37448C21.3137 9.37448 21.0751 9.47331 20.8992 9.64922C20.7233 9.82513 20.6245 10.0637 20.6245 10.3125C20.6245 10.5613 20.7233 10.7999 20.8992 10.9758L23.9871 14.0625H13.125C12.8764 14.0625 12.6379 14.1613 12.4621 14.3371C12.2863 14.5129 12.1875 14.7514 12.1875 15C12.1875 15.2486 12.2863 15.4871 12.4621 15.6629C12.6379 15.8387 12.8764 15.9375 13.125 15.9375H23.9871L20.8992 19.0242C20.7233 19.2001 20.6245 19.4387 20.6245 19.6875C20.6245 19.9363 20.7233 20.1749 20.8992 20.3508C21.0751 20.5267 21.3137 20.6255 21.5625 20.6255C21.8113 20.6255 22.0499 20.5267 22.2258 20.3508L26.9133 15.6633C27.0004 15.5762 27.0696 15.4728 27.1168 15.359C27.164 15.2452 27.1882 15.1232 27.1882 15C27.1882 14.8768 27.164 14.7548 27.1168 14.641C27.0696 14.5272 27.0004 14.4238 26.9133 14.3367Z" fill="black"/>
</svg>
