<svg width="40" height="40" viewBox="0 0 40 40" fill="none" xmlns="http://www.w3.org/2000/svg">
<path d="M39.9996 21.25C39.9996 21.5815 39.8679 21.8995 39.6335 22.1339C39.3991 22.3683 39.0811 22.5 38.7496 22.5H36.2496V25C36.2496 25.3315 36.1179 25.6495 35.8835 25.8839C35.6491 26.1183 35.3311 26.25 34.9996 26.25C34.6681 26.25 34.3501 26.1183 34.1157 25.8839C33.8813 25.6495 33.7496 25.3315 33.7496 25V22.5H31.2496C30.9181 22.5 30.6001 22.3683 30.3657 22.1339C30.1313 21.8995 29.9996 21.5815 29.9996 21.25C29.9996 20.9185 30.1313 20.6006 30.3657 20.3661C30.6001 20.1317 30.9181 20 31.2496 20H33.7496V17.5C33.7496 17.1685 33.8813 16.8506 34.1157 16.6161C34.3501 16.3817 34.6681 16.25 34.9996 16.25C35.3311 16.25 35.6491 16.3817 35.8835 16.6161C36.1179 16.8506 36.2496 17.1685 36.2496 17.5V20H38.7496C39.0811 20 39.3991 20.1317 39.6335 20.3661C39.8679 20.6006 39.9996 20.9185 39.9996 21.25ZM30.9574 30.4453C31.1708 30.6994 31.2746 31.0278 31.2459 31.3583C31.2172 31.6888 31.0583 31.9944 30.8043 32.2078C30.5503 32.4213 30.2218 32.525 29.8913 32.4963C29.5608 32.4676 29.2552 32.3087 29.0418 32.0547C25.898 28.311 21.5762 26.25 16.8746 26.25C12.173 26.25 7.85116 28.311 4.70741 32.0547C4.49399 32.3085 4.18849 32.4672 3.8581 32.4957C3.52771 32.5243 3.19951 32.4205 2.94569 32.2071C2.69187 31.9936 2.53322 31.6881 2.50465 31.3577C2.47608 31.0274 2.57993 30.6992 2.79334 30.4453C5.12772 27.6672 8.03084 25.6938 11.2574 24.6375C9.29788 23.4171 7.78916 21.5916 6.95949 19.4373C6.12982 17.2831 6.02436 14.9172 6.65905 12.6976C7.29374 10.4781 8.63405 8.52559 10.4772 7.13561C12.3204 5.74564 14.5661 4.99377 16.8746 4.99377C19.1831 4.99377 21.4288 5.74564 23.272 7.13561C25.1151 8.52559 26.4555 10.4781 27.0901 12.6976C27.7248 14.9172 27.6194 17.2831 26.7897 19.4373C25.96 21.5916 24.4513 23.4171 22.4918 24.6375C25.7183 25.6938 28.6215 27.6672 30.9574 30.4453ZM16.8746 23.75C18.4816 23.75 20.0525 23.2735 21.3886 22.3807C22.7248 21.4879 23.7662 20.219 24.3811 18.7343C24.9961 17.2497 25.157 15.616 24.8435 14.0399C24.53 12.4638 23.7561 11.0161 22.6198 9.87978C21.4835 8.74348 20.0358 7.96965 18.4597 7.65614C16.8836 7.34264 15.2499 7.50354 13.7653 8.1185C12.2806 8.73346 11.0117 9.77487 10.1189 11.111C9.22612 12.4472 8.74959 14.0181 8.74959 15.625C8.75207 17.7791 9.6089 19.8443 11.1321 21.3675C12.6553 22.8907 14.7205 23.7475 16.8746 23.75Z" fill="black"/>
</svg>
