<svg width="40" height="40" viewBox="0 0 40 40" fill="none" xmlns="http://www.w3.org/2000/svg">
<path d="M38.2505 25.9C38.1191 25.9985 37.9697 26.0702 37.8107 26.1109C37.6517 26.1517 37.4862 26.1607 37.3237 26.1375C37.1612 26.1142 37.0049 26.0592 36.8636 25.9756C36.7224 25.892 36.599 25.7813 36.5005 25.65C35.7471 24.6373 34.7664 23.8156 33.6374 23.2511C32.5084 22.6867 31.2627 22.3951 30.0005 22.4C29.7547 22.4 29.5143 22.3275 29.3095 22.1916C29.1047 22.0557 28.9445 21.8624 28.8489 21.636C28.784 21.4822 28.7506 21.3169 28.7506 21.15C28.7506 20.9831 28.784 20.8179 28.8489 20.6641C28.9445 20.4376 29.1047 20.2443 29.3095 20.1084C29.5143 19.9725 29.7547 19.9 30.0005 19.9C30.7018 19.9 31.3891 19.7032 31.9843 19.3321C32.5794 18.961 33.0586 18.4305 33.3673 17.8007C33.676 17.1709 33.802 16.4672 33.7308 15.7695C33.6596 15.0717 33.3942 14.4079 32.9647 13.8535C32.5352 13.299 31.9588 12.8761 31.3009 12.6329C30.6431 12.3896 29.9303 12.3356 29.2433 12.4772C28.5564 12.6187 27.9229 12.9501 27.4149 13.4336C26.9068 13.9171 26.5446 14.5334 26.3692 15.2125C26.3282 15.3715 26.2562 15.5209 26.1575 15.6521C26.0587 15.7833 25.935 15.8938 25.7936 15.9773C25.6521 16.0607 25.4956 16.1154 25.333 16.1384C25.1704 16.1613 25.0048 16.152 24.8458 16.111C24.6868 16.0699 24.5374 15.998 24.4062 15.8992C24.275 15.8004 24.1645 15.6768 24.0811 15.5353C23.9976 15.3938 23.9429 15.2373 23.9199 15.0747C23.897 14.9121 23.9063 14.7465 23.9473 14.5875C24.1907 13.6458 24.6505 12.7739 25.2901 12.0412C25.9298 11.3085 26.7316 10.7351 27.6318 10.3668C28.532 9.9985 29.5057 9.84537 30.4755 9.9196C31.4453 9.99383 32.3844 10.2934 33.2181 10.7944C34.0517 11.2954 34.757 11.9841 35.2776 12.8057C35.7983 13.6272 36.12 14.5589 36.2172 15.5267C36.3144 16.4945 36.1845 17.4716 35.8376 18.3803C35.4907 19.2889 34.9366 20.1041 34.2192 20.761C35.9189 21.4969 37.3965 22.6647 38.5052 24.1485C38.6036 24.2801 38.6752 24.4299 38.7157 24.5893C38.7562 24.7486 38.7649 24.9144 38.7412 25.0771C38.7176 25.2398 38.662 25.3962 38.5778 25.5374C38.4936 25.6786 38.3824 25.8019 38.2505 25.9ZM29.8317 35.525C29.9222 35.6673 29.9829 35.8264 30.0103 35.9927C30.0376 36.1591 30.031 36.3293 29.9909 36.493C29.9508 36.6567 29.878 36.8107 29.7769 36.9456C29.6757 37.0804 29.5483 37.1935 29.4024 37.2778C29.2564 37.3622 29.0949 37.4162 28.9276 37.4365C28.7602 37.4568 28.5905 37.4431 28.4286 37.3961C28.2666 37.3491 28.1159 37.2699 27.9854 37.1632C27.8549 37.0564 27.7474 36.9244 27.6692 36.775C26.8818 35.4417 25.7603 34.3367 24.4155 33.5691C23.0707 32.8015 21.549 32.3977 20.0005 32.3977C18.452 32.3977 16.9303 32.8015 15.5854 33.5691C14.2406 34.3367 13.1192 35.4417 12.3317 36.775C12.2536 36.9244 12.146 37.0564 12.0155 37.1632C11.885 37.2699 11.7343 37.3491 11.5724 37.3961C11.4105 37.4431 11.2407 37.4568 11.0734 37.4365C10.906 37.4162 10.7445 37.3622 10.5986 37.2778C10.4526 37.1935 10.3252 37.0804 10.2241 36.9456C10.1229 36.8107 10.0501 36.6567 10.01 36.493C9.9699 36.3293 9.96333 36.1591 9.99069 35.9927C10.0181 35.8264 10.0788 35.6673 10.1692 35.525C11.3811 33.4428 13.2289 31.8042 15.4411 30.85C14.1963 29.897 13.2815 28.5778 12.8252 27.0779C12.3689 25.578 12.3941 23.9728 12.8972 22.488C13.4004 21.0032 14.3562 19.7133 15.6303 18.7998C16.9044 17.8863 18.4327 17.395 20.0005 17.395C21.5682 17.395 23.0966 17.8863 24.3707 18.7998C25.6448 19.7133 26.6006 21.0032 27.1037 22.488C27.6069 23.9728 27.6321 25.578 27.1758 27.0779C26.7195 28.5778 25.8046 29.897 24.5598 30.85C26.772 31.8042 28.6199 33.4428 29.8317 35.525ZM20.0005 29.9C20.9894 29.9 21.9561 29.6068 22.7783 29.0574C23.6006 28.508 24.2414 27.7271 24.6199 26.8134C24.9983 25.8998 25.0973 24.8945 24.9044 23.9246C24.7115 22.9547 24.2353 22.0637 23.536 21.3645C22.8367 20.6652 21.9458 20.189 20.9759 19.9961C20.006 19.8032 19.0007 19.9022 18.0871 20.2806C17.1734 20.6591 16.3925 21.2999 15.8431 22.1222C15.2937 22.9444 15.0005 23.9111 15.0005 24.9C15.0005 26.2261 15.5273 27.4979 16.4649 28.4356C17.4026 29.3732 18.6744 29.9 20.0005 29.9ZM11.2505 21.15C11.2505 20.8185 11.1188 20.5006 10.8844 20.2661C10.6499 20.0317 10.332 19.9 10.0005 19.9C9.29911 19.9 8.61182 19.7032 8.01667 19.3321C7.42153 18.961 6.94238 18.4305 6.63365 17.8007C6.32492 17.1709 6.19899 16.4672 6.27016 15.7695C6.34133 15.0717 6.60675 14.4079 7.03627 13.8535C7.46579 13.299 8.04219 12.8761 8.7 12.6329C9.35782 12.3896 10.0707 12.3356 10.7576 12.4772C11.4445 12.6187 12.078 12.9501 12.5861 13.4336C13.0941 13.9171 13.4564 14.5334 13.6317 15.2125C13.7146 15.5337 13.9217 15.8088 14.2074 15.9773C14.4931 16.1457 14.834 16.1938 15.1552 16.111C15.4763 16.0281 15.7514 15.821 15.9199 15.5353C16.0884 15.2496 16.1365 14.9087 16.0536 14.5875C15.8102 13.6458 15.3504 12.7739 14.7108 12.0412C14.0712 11.3085 13.2694 10.7351 12.3692 10.3668C11.4689 9.9985 10.4952 9.84537 9.52541 9.9196C8.55561 9.99383 7.61652 10.2934 6.78286 10.7944C5.9492 11.2954 5.24398 11.9841 4.72332 12.8057C4.20266 13.6272 3.88092 14.5589 3.78371 15.5267C3.68649 16.4945 3.81649 17.4716 4.16335 18.3803C4.51022 19.2889 5.06437 20.1041 5.78172 20.761C4.08373 21.4976 2.60784 22.6654 1.50047 24.1485C1.30135 24.4137 1.21575 24.7471 1.26248 25.0755C1.30922 25.4038 1.48448 25.7001 1.74969 25.8992C2.01491 26.0984 2.34836 26.184 2.6767 26.1372C3.00503 26.0905 3.30135 25.9152 3.50047 25.65C4.25389 24.6373 5.23456 23.8156 6.36353 23.2511C7.49251 22.6867 8.73825 22.3951 10.0005 22.4C10.332 22.4 10.6499 22.2683 10.8844 22.0339C11.1188 21.7995 11.2505 21.4815 11.2505 21.15Z" fill="black"/>
</svg>
